<?xml version="1.0" standalone="no"?>
<!DOCTYPE svg PUBLIC "-//W3C//DTD SVG 20010904//EN"
 "http://www.w3.org/TR/2001/REC-SVG-20010904/DTD/svg10.dtd">
<svg version="1.0" xmlns="http://www.w3.org/2000/svg"
 width="300.000000pt" height="300.000000pt" viewBox="0 0 300.000000 300.000000"
 preserveAspectRatio="xMidYMid meet">
<metadata>
Created by potrace 1.11, written by Peter Selinger 2001-2013
</metadata>
<g transform="translate(0.000000,300.000000) scale(0.100000,-0.100000)"
fill="#000000" stroke="none">
<path d="M1458 2945 c-2 -1 -39 -5 -83 -8 -179 -13 -301 -44 -470 -120 -214
-96 -410 -252 -556 -442 -140 -183 -246 -429 -274 -635 -3 -25 -8 -58 -11 -74
-8 -36 -7 -291 0 -326 3 -14 8 -45 11 -70 6 -48 49 -222 64 -255 5 -11 23 -54
41 -95 165 -387 538 -705 947 -809 130 -33 200 -43 334 -45 174 -4 387 28 511
75 125 48 357 173 388 209 3 3 18 16 34 28 159 122 325 333 413 527 48 104 99
271 108 347 3 29 8 67 11 83 3 17 7 77 8 135 8 313 -72 582 -251 853 -71 107
-269 301 -383 376 -207 135 -436 218 -653 237 -81 7 -186 12 -189 9z m207 -89
c193 -22 424 -111 610 -235 87 -58 244 -212 318 -311 130 -176 229 -423 254
-632 11 -91 7 -322 -7 -397 -99 -547 -487 -964 -1025 -1100 -44 -11 -107 -23
-140 -27 -89 -10 -282 -11 -350 -2 -84 11 -243 53 -331 87 -82 32 -246 120
-286 154 -15 12 -51 41 -81 65 -103 81 -227 225 -299 347 -96 162 -167 371
-184 540 -14 146 -11 244 12 399 12 84 77 275 125 370 258 514 806 807 1384
742z"/>
<path d="M1463 2798 c-51 -25 -52 -110 -2 -135 58 -30 109 1 109 66 0 58 -56
94 -107 69z"/>
<path d="M1446 2538 c-104 -119 -163 -297 -153 -463 8 -143 74 -309 153 -388
22 -22 27 -37 28 -87 2 -50 -2 -66 -21 -93 -38 -51 -16 -107 43 -107 19 0 56
-14 91 -35 54 -32 61 -40 76 -88 9 -29 31 -74 48 -101 36 -58 137 -166 154
-166 7 0 18 -6 24 -14 16 -19 132 -65 185 -74 58 -9 176 -5 209 7 34 13 31 31
-19 139 -94 203 -333 335 -550 302 -37 -6 -49 -2 -96 27 -29 19 -52 39 -50 45
5 19 -7 55 -23 72 -10 10 -16 36 -16 74 -1 56 2 64 41 113 90 114 140 259 140
405 0 134 -28 238 -96 354 -32 54 -99 130 -114 130 -5 0 -29 -24 -54 -52z
m110 -89 c73 -113 97 -192 98 -329 1 -94 -3 -128 -22 -185 -22 -71 -102 -213
-102 -185 -1 8 -1 118 -1 245 0 235 -5 263 -38 246 -15 -8 -16 -36 -16 -259 0
-279 3 -272 -62 -148 -54 104 -67 165 -66 296 1 97 33 210 85 295 27 45 66 95
74 95 2 0 24 -32 50 -71z m379 -1145 c141 -49 254 -157 306 -294 l19 -50 -73
0 c-143 0 -269 50 -362 145 -53 52 -122 161 -111 172 2 2 79 -43 172 -101 157
-99 198 -116 181 -74 -2 8 -72 56 -153 107 -198 125 -198 125 -104 118 41 -4
97 -14 125 -23z"/>
<path d="M222 1570 c-43 -18 -52 -88 -16 -124 16 -17 80 -21 101 -8 13 8 33
55 33 76 0 21 -51 66 -74 65 -11 0 -31 -4 -44 -9z"/>
<path d="M2679 1561 c-18 -14 -24 -29 -24 -60 0 -49 18 -70 66 -77 28 -5 41
-1 64 18 79 68 -25 185 -106 119z"/>
<path d="M1445 325 c-14 -13 -26 -30 -26 -37 -5 -54 28 -98 73 -98 40 0 64 14
80 48 39 77 -66 149 -127 87z"/>
</g>
</svg>
